# Blender v2.80 (sub 75) OBJ File: ''
# www.blender.org
mtllib MineDrill.mtl
o Cone
v 0.000000 4.034363 1.000000
v 0.195090 4.034363 0.980785
v 0.382683 4.034363 0.923879
v 0.555570 4.034363 0.831469
v 0.707107 4.034363 0.707107
v 0.831470 4.034363 0.555570
v 0.923880 4.034363 0.382683
v 0.980785 4.034363 0.195090
v 1.000000 4.034363 -0.000000
v 0.980785 4.034363 -0.195090
v 0.923880 4.034363 -0.382683
v 0.831470 4.034363 -0.555570
v 0.707107 4.034363 -0.707107
v 0.555570 4.034363 -0.831470
v 0.382683 4.034363 -0.923880
v 0.195090 4.034363 -0.980785
v -0.000000 4.034363 -1.000000
v -0.195091 4.034363 -0.980785
v -0.382684 4.034363 -0.923880
v -0.555571 4.034363 -0.831469
v -0.707107 4.034363 -0.707107
v -0.831470 4.034363 -0.555570
v -0.923880 4.034363 -0.382683
v 0.000000 2.034363 0.000000
v -0.980785 4.034363 -0.195090
v -1.000000 4.034363 0.000001
v -0.980785 4.034363 0.195091
v -0.923879 4.034363 0.382684
v -0.831469 4.034363 0.555571
v -0.707106 4.034363 0.707107
v -0.555569 4.034363 0.831470
v -0.382682 4.034363 0.923880
v -0.195089 4.034363 0.980785
v 0.000000 3.579293 -0.568475
v 0.000000 12.755117 -0.568475
v 0.110904 3.579293 -0.557552
v 0.110904 12.755117 -0.557552
v 0.217546 3.579293 -0.525202
v 0.217546 12.755117 -0.525202
v 0.315828 3.579293 -0.472670
v 0.315828 12.755117 -0.472670
v 0.401972 3.579293 -0.401972
v 0.401972 12.755117 -0.401972
v 0.472670 3.579293 -0.315828
v 0.472670 12.755117 -0.315828
v 0.525202 3.579293 -0.217546
v 0.525202 12.755117 -0.217546
v 0.557552 3.579293 -0.110904
v 0.557552 12.755117 -0.110904
v 0.568475 3.579293 -0.000000
v 0.568475 12.755117 -0.000000
v 0.557552 3.579293 0.110904
v 0.557552 12.755117 0.110904
v 0.525202 3.579293 0.217546
v 0.525202 12.755117 0.217546
v 0.472670 3.579293 0.315828
v 0.472670 12.755117 0.315828
v 0.401972 3.579293 0.401972
v 0.401972 12.755117 0.401972
v 0.315828 3.579293 0.472670
v 0.315828 12.755117 0.472670
v 0.217546 3.579293 0.525202
v 0.217546 12.755117 0.525202
v 0.110904 3.579293 0.557552
v 0.110904 12.755117 0.557552
v -0.000000 3.579293 0.568475
v -0.000000 12.755117 0.568475
v -0.110904 3.579293 0.557552
v -0.110904 12.755117 0.557552
v -0.217546 3.579293 0.525202
v -0.217546 12.755117 0.525202
v -0.315828 3.579293 0.472669
v -0.315828 12.755117 0.472669
v -0.401973 3.579293 0.401972
v -0.401973 12.755117 0.401972
v -0.472670 3.579293 0.315827
v -0.472670 12.755117 0.315827
v -0.525203 3.579293 0.217545
v -0.525203 12.755117 0.217545
v -0.557552 3.579293 0.110903
v -0.557552 12.755117 0.110903
v -0.568475 3.579293 -0.000001
v -0.568475 12.755117 -0.000001
v -0.557552 3.579293 -0.110905
v -0.557552 12.755117 -0.110905
v -0.525202 3.579293 -0.217547
v -0.525202 12.755117 -0.217547
v -0.472669 3.579293 -0.315828
v -0.472669 12.755117 -0.315828
v -0.401972 3.579293 -0.401973
v -0.401972 12.755117 -0.401973
v -0.315827 3.579293 -0.472670
v -0.315827 12.755117 -0.472670
v -0.217545 3.579293 -0.525203
v -0.217545 12.755117 -0.525203
v -0.110903 3.579293 -0.557552
v -0.110903 12.755117 -0.557552
vt 0.250000 0.490000
vt 0.250000 0.250000
vt 0.296822 0.485388
vt 0.341844 0.471731
vt 0.383337 0.449553
vt 0.419706 0.419706
vt 0.449553 0.383337
vt 0.471731 0.341844
vt 0.485388 0.296822
vt 0.490000 0.250000
vt 0.485388 0.203178
vt 0.471731 0.158156
vt 0.449553 0.116663
vt 0.419706 0.080294
vt 0.383337 0.050447
vt 0.341844 0.028269
vt 0.296822 0.014612
vt 0.250000 0.010000
vt 0.203178 0.014612
vt 0.158156 0.028269
vt 0.116663 0.050447
vt 0.080294 0.080294
vt 0.050447 0.116663
vt 0.028269 0.158156
vt 0.014611 0.203179
vt 0.010000 0.250000
vt 0.014612 0.296822
vt 0.028269 0.341844
vt 0.050447 0.383337
vt 0.080295 0.419706
vt 0.116663 0.449553
vt 0.158156 0.471731
vt 0.203179 0.485389
vt 0.985388 0.296822
vt 0.796822 0.014612
vt 0.514611 0.203179
vt 1.000000 1.000000
vt 0.968750 0.500000
vt 1.000000 0.500000
vt 0.968750 1.000000
vt 0.937500 0.500000
vt 0.937500 1.000000
vt 0.906250 0.500000
vt 0.906250 1.000000
vt 0.875000 0.500000
vt 0.843750 1.000000
vt 0.843750 0.500000
vt 0.812500 0.500000
vt 0.812500 1.000000
vt 0.781250 0.500000
vt 0.781250 1.000000
vt 0.750000 0.500000
vt 0.750000 1.000000
vt 0.718750 0.500000
vt 0.718750 1.000000
vt 0.687500 0.500000
vt 0.687500 1.000000
vt 0.656250 0.500000
vt 0.656250 1.000000
vt 0.625000 0.500000
vt 0.625000 1.000000
vt 0.593750 0.500000
vt 0.593750 1.000000
vt 0.562500 0.500000
vt 0.562500 1.000000
vt 0.531250 0.500000
vt 0.531250 1.000000
vt 0.500000 0.500000
vt 0.500000 1.000000
vt 0.468750 0.500000
vt 0.468750 1.000000
vt 0.437500 0.500000
vt 0.437500 1.000000
vt 0.406250 0.500000
vt 0.406250 1.000000
vt 0.375000 0.500000
vt 0.375000 1.000000
vt 0.343750 0.500000
vt 0.343750 1.000000
vt 0.312500 0.500000
vt 0.312500 1.000000
vt 0.281250 0.500000
vt 0.281250 1.000000
vt 0.250000 0.500000
vt 0.250000 1.000000
vt 0.218750 0.500000
vt 0.218750 1.000000
vt 0.187500 0.500000
vt 0.187500 1.000000
vt 0.156250 0.500000
vt 0.156250 1.000000
vt 0.125000 0.500000
vt 0.093750 1.000000
vt 0.093750 0.500000
vt 0.062500 0.500000
vt 0.158156 0.028269
vt 0.471731 0.158156
vt 0.341844 0.471731
vt 0.062500 1.000000
vt 0.031250 0.500000
vt 0.031250 1.000000
vt 0.000000 0.500000
vt 0.796822 0.014612
vt 0.514611 0.203179
vt 0.703179 0.485389
vt 0.703179 0.485389
vt 0.750000 0.490000
vt 0.796822 0.485388
vt 0.841844 0.471731
vt 0.883337 0.449553
vt 0.919706 0.419706
vt 0.949553 0.383337
vt 0.971731 0.341844
vt 0.990000 0.250000
vt 0.985388 0.203178
vt 0.971731 0.158156
vt 0.949553 0.116663
vt 0.919706 0.080294
vt 0.883337 0.050447
vt 0.841844 0.028269
vt 0.750000 0.010000
vt 0.703178 0.014612
vt 0.658156 0.028269
vt 0.616663 0.050447
vt 0.580294 0.080294
vt 0.550447 0.116663
vt 0.528269 0.158156
vt 0.510000 0.250000
vt 0.514612 0.296822
vt 0.528269 0.341844
vt 0.550447 0.383337
vt 0.580295 0.419706
vt 0.616663 0.449553
vt 0.658156 0.471731
vt 0.875000 1.000000
vt 0.125000 1.000000
vt 0.296822 0.485388
vt 0.250000 0.490000
vt 0.203179 0.485389
vt 0.158156 0.471731
vt 0.116663 0.449553
vt 0.080295 0.419706
vt 0.050447 0.383337
vt 0.028269 0.341844
vt 0.014612 0.296822
vt 0.010000 0.250000
vt 0.014611 0.203179
vt 0.028269 0.158156
vt 0.050447 0.116663
vt 0.080294 0.080294
vt 0.116663 0.050447
vt 0.203178 0.014612
vt 0.250000 0.010000
vt 0.296822 0.014612
vt 0.341844 0.028269
vt 0.383337 0.050447
vt 0.419706 0.080294
vt 0.449553 0.116663
vt 0.485388 0.203178
vt 0.471731 0.341844
vt 0.490000 0.250000
vt 0.485388 0.296822
vt 0.449553 0.383337
vt 0.419706 0.419706
vt 0.383337 0.449553
vt 0.000000 1.000000
vt 0.750000 0.490000
vt 0.883337 0.449553
vt 0.796822 0.485388
vt 0.841844 0.471731
vt 0.919706 0.419706
vt 0.949553 0.383337
vt 0.971731 0.341844
vt 0.985388 0.296822
vt 0.990000 0.250000
vt 0.985388 0.203178
vt 0.971731 0.158156
vt 0.949553 0.116663
vt 0.919706 0.080294
vt 0.883337 0.050447
vt 0.841844 0.028269
vt 0.750000 0.010000
vt 0.703178 0.014612
vt 0.658156 0.028269
vt 0.616663 0.050447
vt 0.580294 0.080294
vt 0.550447 0.116663
vt 0.528269 0.158156
vt 0.510000 0.250000
vt 0.514612 0.296822
vt 0.528269 0.341844
vt 0.550447 0.383337
vt 0.580295 0.419706
vt 0.616663 0.449553
vt 0.658156 0.471731
vn 0.0878 -0.4455 0.8910
vn 0.2599 -0.4455 0.8567
vn 0.4220 -0.4455 0.7896
vn 0.5680 -0.4455 0.6921
vn 0.6921 -0.4455 0.5680
vn 0.7896 -0.4455 0.4220
vn 0.8567 -0.4455 0.2599
vn 0.8910 -0.4455 0.0878
vn 0.8910 -0.4455 -0.0878
vn 0.8567 -0.4455 -0.2599
vn 0.7896 -0.4455 -0.4220
vn 0.6921 -0.4455 -0.5680
vn 0.5680 -0.4455 -0.6921
vn 0.4220 -0.4455 -0.7896
vn 0.2599 -0.4455 -0.8567
vn 0.0878 -0.4455 -0.8910
vn -0.0878 -0.4455 -0.8910
vn -0.2599 -0.4455 -0.8567
vn -0.4220 -0.4455 -0.7896
vn -0.5680 -0.4455 -0.6921
vn -0.6921 -0.4455 -0.5680
vn -0.7896 -0.4455 -0.4220
vn -0.8567 -0.4455 -0.2599
vn -0.8910 -0.4455 -0.0878
vn -0.8910 -0.4455 0.0878
vn -0.8567 -0.4455 0.2599
vn -0.7896 -0.4455 0.4220
vn -0.6921 -0.4455 0.5680
vn -0.5680 -0.4455 0.6921
vn -0.4220 -0.4455 0.7896
vn -0.2599 -0.4455 0.8567
vn -0.0878 -0.4455 0.8910
vn 0.0000 1.0000 -0.0000
vn 0.0980 0.0000 -0.9952
vn 0.2903 0.0000 -0.9569
vn 0.4714 0.0000 -0.8819
vn 0.6344 0.0000 -0.7730
vn 0.7730 0.0000 -0.6344
vn 0.8819 0.0000 -0.4714
vn 0.9569 0.0000 -0.2903
vn 0.9952 0.0000 -0.0980
vn 0.9952 0.0000 0.0980
vn 0.9569 0.0000 0.2903
vn 0.8819 0.0000 0.4714
vn 0.7730 0.0000 0.6344
vn 0.6344 0.0000 0.7730
vn 0.4714 0.0000 0.8819
vn 0.2903 0.0000 0.9569
vn 0.0980 0.0000 0.9952
vn -0.0980 0.0000 0.9952
vn -0.2903 0.0000 0.9569
vn -0.4714 0.0000 0.8819
vn -0.6344 0.0000 0.7730
vn -0.7730 0.0000 0.6344
vn -0.8819 0.0000 0.4714
vn -0.9569 0.0000 0.2903
vn -0.9952 0.0000 0.0980
vn -0.9952 0.0000 -0.0980
vn -0.9569 0.0000 -0.2903
vn -0.8819 0.0000 -0.4714
vn -0.7730 0.0000 -0.6344
vn -0.6344 0.0000 -0.7730
vn -0.4714 0.0000 -0.8819
vn -0.2903 0.0000 -0.9569
vn -0.0980 0.0000 -0.9952
vn 0.0000 -1.0000 0.0000
vn 0.0000 1.0000 -0.0001
vn 0.0000 1.0000 0.0001
usemtl None
s off
f 1/1/1 24/2/1 2/3/1
f 2/3/2 24/2/2 3/4/2
f 3/4/3 24/2/3 4/5/3
f 4/5/4 24/2/4 5/6/4
f 5/6/5 24/2/5 6/7/5
f 6/7/6 24/2/6 7/8/6
f 7/8/7 24/2/7 8/9/7
f 8/9/8 24/2/8 9/10/8
f 9/10/9 24/2/9 10/11/9
f 10/11/10 24/2/10 11/12/10
f 11/12/11 24/2/11 12/13/11
f 12/13/12 24/2/12 13/14/12
f 13/14/13 24/2/13 14/15/13
f 14/15/14 24/2/14 15/16/14
f 15/16/15 24/2/15 16/17/15
f 16/17/16 24/2/16 17/18/16
f 17/18/17 24/2/17 18/19/17
f 18/19/18 24/2/18 19/20/18
f 19/20/19 24/2/19 20/21/19
f 20/21/20 24/2/20 21/22/20
f 21/22/21 24/2/21 22/23/21
f 22/23/22 24/2/22 23/24/22
f 23/24/23 24/2/23 25/25/23
f 25/25/24 24/2/24 26/26/24
f 26/26/25 24/2/25 27/27/25
f 27/27/26 24/2/26 28/28/26
f 28/28/27 24/2/27 29/29/27
f 29/29/28 24/2/28 30/30/28
f 30/30/29 24/2/29 31/31/29
f 31/31/30 24/2/30 32/32/30
f 32/32/31 24/2/31 33/33/31
f 33/33/32 24/2/32 1/1/32
f 8/34/33 16/35/33 25/36/33
f 35/37/34 36/38/34 34/39/34
f 37/40/35 38/41/35 36/38/35
f 39/42/36 40/43/36 38/41/36
f 41/44/37 42/45/37 40/43/37
f 42/45/38 45/46/38 44/47/38
f 45/46/39 46/48/39 44/47/39
f 47/49/40 48/50/40 46/48/40
f 49/51/41 50/52/41 48/50/41
f 51/53/42 52/54/42 50/52/42
f 53/55/43 54/56/43 52/54/43
f 55/57/44 56/58/44 54/56/44
f 57/59/45 58/60/45 56/58/45
f 59/61/46 60/62/46 58/60/46
f 61/63/47 62/64/47 60/62/47
f 63/65/48 64/66/48 62/64/48
f 65/67/49 66/68/49 64/66/49
f 67/69/50 68/70/50 66/68/50
f 69/71/51 70/72/51 68/70/51
f 71/73/52 72/74/52 70/72/52
f 73/75/53 74/76/53 72/74/53
f 75/77/54 76/78/54 74/76/54
f 77/79/55 78/80/55 76/78/55
f 79/81/56 80/82/56 78/80/56
f 81/83/57 82/84/57 80/82/57
f 83/85/58 84/86/58 82/84/58
f 85/87/59 86/88/59 84/86/59
f 87/89/60 88/90/60 86/88/60
f 89/91/61 90/92/61 88/90/61
f 90/92/62 93/93/62 92/94/62
f 93/93/63 94/95/63 92/94/63
f 71/96/33 55/97/33 39/98/33
f 95/99/64 96/100/64 94/95/64
f 97/101/65 34/102/65 96/100/65
f 64/103/66 80/104/66 96/105/66
f 33/106/33 1/107/33 2/108/33
f 2/108/33 3/109/33 4/110/33
f 4/110/33 5/111/33 6/112/33
f 6/112/33 7/113/33 4/110/33
f 7/113/33 8/34/33 4/110/33
f 8/34/33 9/114/33 10/115/33
f 10/115/33 11/116/33 8/34/33
f 11/116/33 12/117/33 8/34/33
f 12/117/33 13/118/33 16/35/33
f 13/118/33 14/119/33 16/35/33
f 14/119/33 15/120/33 16/35/33
f 16/35/33 17/121/33 18/122/33
f 18/122/33 19/123/33 20/124/33
f 20/124/33 21/125/33 22/126/33
f 22/126/33 23/127/33 25/36/33
f 25/36/33 26/128/33 27/129/33
f 27/129/33 28/130/33 29/131/33
f 29/131/33 30/132/33 33/106/33
f 30/132/33 31/133/33 33/106/33
f 31/133/33 32/134/33 33/106/33
f 33/106/33 2/108/33 4/110/33
f 16/35/33 18/122/33 25/36/33
f 18/122/33 20/124/33 25/36/33
f 20/124/33 22/126/33 25/36/33
f 25/36/33 27/129/33 33/106/33
f 27/129/33 29/131/33 33/106/33
f 33/106/33 4/110/33 8/34/33
f 8/34/33 12/117/33 16/35/33
f 33/106/33 8/34/33 25/36/33
f 35/37/34 37/40/34 36/38/34
f 37/40/35 39/42/35 38/41/35
f 39/42/36 41/44/36 40/43/36
f 41/44/37 43/135/37 42/45/37
f 42/45/38 43/135/38 45/46/38
f 45/46/39 47/49/39 46/48/39
f 47/49/40 49/51/40 48/50/40
f 49/51/41 51/53/41 50/52/41
f 51/53/42 53/55/42 52/54/42
f 53/55/43 55/57/43 54/56/43
f 55/57/44 57/59/44 56/58/44
f 57/59/45 59/61/45 58/60/45
f 59/61/46 61/63/46 60/62/46
f 61/63/47 63/65/47 62/64/47
f 63/65/48 65/67/48 64/66/48
f 65/67/49 67/69/49 66/68/49
f 67/69/50 69/71/50 68/70/50
f 69/71/51 71/73/51 70/72/51
f 71/73/52 73/75/52 72/74/52
f 73/75/53 75/77/53 74/76/53
f 75/77/54 77/79/54 76/78/54
f 77/79/55 79/81/55 78/80/55
f 79/81/56 81/83/56 80/82/56
f 81/83/57 83/85/57 82/84/57
f 83/85/58 85/87/58 84/86/58
f 85/87/59 87/89/59 86/88/59
f 87/89/60 89/91/60 88/90/60
f 89/91/61 91/136/61 90/92/61
f 90/92/62 91/136/62 93/93/62
f 93/93/63 95/99/63 94/95/63
f 39/98/67 37/137/67 35/138/67
f 35/138/68 97/139/68 95/140/68
f 95/140/33 93/141/33 91/142/33
f 91/142/33 89/143/33 87/144/33
f 87/144/33 85/145/33 83/146/33
f 83/146/33 81/147/33 87/144/33
f 81/147/33 79/148/33 87/144/33
f 79/148/33 77/149/33 75/150/33
f 75/150/67 73/151/67 71/96/67
f 71/96/68 69/152/68 67/153/68
f 67/153/67 65/154/67 71/96/67
f 65/154/68 63/155/68 71/96/68
f 63/155/67 61/156/67 59/157/67
f 59/157/33 57/158/33 55/97/33
f 55/97/33 53/159/33 47/160/33
f 53/159/33 51/161/33 47/160/33
f 51/161/33 49/162/33 47/160/33
f 47/160/33 45/163/33 43/164/33
f 43/164/33 41/165/33 39/98/33
f 39/98/33 35/138/33 95/140/33
f 95/140/33 91/142/33 87/144/33
f 79/148/33 75/150/33 87/144/33
f 75/150/33 71/96/33 87/144/33
f 63/155/33 59/157/33 71/96/33
f 59/157/33 55/97/33 71/96/33
f 47/160/33 43/164/33 39/98/33
f 39/98/33 95/140/33 87/144/33
f 55/97/33 47/160/33 39/98/33
f 39/98/33 87/144/33 71/96/33
f 95/99/64 97/101/64 96/100/64
f 97/101/65 35/166/65 34/102/65
f 96/105/66 34/167/66 40/168/66
f 34/167/66 36/169/66 40/168/66
f 36/169/66 38/170/66 40/168/66
f 40/168/66 42/171/66 44/172/66
f 44/172/66 46/173/66 40/168/66
f 46/173/66 48/174/66 40/168/66
f 48/174/66 50/175/66 52/176/66
f 52/176/66 54/177/66 56/178/66
f 56/178/66 58/179/66 64/103/66
f 58/179/66 60/180/66 64/103/66
f 60/180/66 62/181/66 64/103/66
f 64/103/66 66/182/66 68/183/66
f 68/183/66 70/184/66 72/185/66
f 72/185/66 74/186/66 76/187/66
f 76/187/66 78/188/66 80/104/66
f 80/104/66 82/189/66 84/190/66
f 84/190/66 86/191/66 80/104/66
f 86/191/66 88/192/66 80/104/66
f 88/192/66 90/193/66 92/194/66
f 92/194/66 94/195/66 96/105/66
f 48/174/66 52/176/66 64/103/66
f 52/176/66 56/178/66 64/103/66
f 64/103/66 68/183/66 80/104/66
f 68/183/66 72/185/66 80/104/66
f 72/185/66 76/187/66 80/104/66
f 88/192/66 92/194/66 96/105/66
f 96/105/66 40/168/66 48/174/66
f 80/104/66 88/192/66 96/105/66
f 96/105/66 48/174/66 64/103/66
